<svg width="503" height="349" viewBox="0 0 503 349" fill="none" xmlns="http://www.w3.org/2000/svg">
<path d="M456.318 55H208.318C197.272 55 188.318 63.9543 188.318 75V318C188.318 329.046 197.272 338 208.318 338H456.318C467.364 338 476.318 329.046 476.318 318V75C476.318 63.9543 467.364 55 456.318 55Z" fill="#C0E0FF"/>
<path d="M36.1719 127.471C36.1719 127.471 42.4818 113.006 60.2907 114.037C78.087 115.069 86.1349 126.96 86.1349 126.96C86.1349 126.96 95.8958 116.622 109.108 122.823C122.319 129.024 123.466 135.225 123.466 135.225C123.466 135.225 133.806 126.96 145.28 137.809L147.572 141.425C147.572 141.425 156.753 136.256 164.222 140.904C164.222 140.904 174.562 137.798 180.872 142.457H0C0 142.457 5.74317 134.703 16.6502 137.809C16.6502 137.809 20.1011 125.407 36.1719 127.471Z" fill="url(#paint0_linear)"/>
<path d="M206.791 102.236C206.791 102.236 210.053 94.7428 219.272 95.2869C228.479 95.8197 232.648 101.975 232.648 101.975C232.648 101.975 237.698 96.6246 244.537 99.8327C251.376 103.041 251.968 106.249 251.968 106.249C251.968 106.249 257.321 101.975 263.253 107.587L264.437 109.457C264.437 109.457 269.185 106.782 273.051 109.185C273.051 109.185 278.404 107.575 281.666 109.99H188.075C188.075 109.99 191.047 105.977 196.69 107.587C196.69 107.587 198.466 101.17 206.791 102.236Z" fill="url(#paint1_linear)"/>
<path d="M436.892 338.192C436.62 325.547 434.388 205.748 431.137 163.453C429.483 142.101 433.765 114.501 391.487 110.006C391.487 110.006 372.647 108.976 366.485 110.006C352.369 112.372 326.438 120.738 326.438 150.637C326.438 194.325 325.996 322.909 326.393 338.192H436.892Z" fill="#332A58"/>
<path d="M326.234 151.067C326.234 167.177 326.314 333.381 326.314 333.381H335.66C352.687 333.381 366.485 319.592 366.485 302.576V109.825C366.485 109.825 326.234 109.995 326.234 151.067Z" fill="#EC6933"/>
<path d="M326.45 223.589C326.45 207.785 326.597 144.58 326.597 144.58C326.597 144.58 308.913 243.48 297.301 296.678C293.676 313.297 308.97 335.565 325.997 335.565H326.45V223.589Z" fill="#EC6933"/>
<path d="M413.827 154.939C413.827 154.939 465.893 179.585 478.139 185.121C487.032 189.151 496.186 185.97 499.72 179.54C502.745 174.049 503.47 163.803 491.19 157.362C478.921 150.92 412.139 114.093 412.139 114.093L413.827 154.939Z" fill="#EC6933"/>
<path d="M295.545 243.424C295.545 243.424 348.835 157.464 356.844 146.675C361.126 140.935 360.673 128.097 355.371 123.025C350.851 118.689 344.915 113.153 335.524 123.353C326.144 133.554 257.572 222.888 257.572 222.888L295.545 243.424Z" fill="#EC6933"/>
<path d="M418.313 90.5113C418.313 90.5113 466.154 166.543 473.177 177.977C478.287 186.31 487.655 188.812 494.192 185.472C499.777 182.619 506.11 174.547 499.562 162.332C493.025 150.116 430.639 80.2432 430.639 80.2432L418.313 90.5113Z" fill="#EC6933"/>
<path d="M414.529 115.146C407.744 111.523 391.464 109.825 391.464 109.825L436.881 347.283C436.881 347.283 454.168 347.985 451.177 321.437C443.621 254.428 443.281 237.549 431.092 139.056C430.333 131.799 428.747 122.731 414.529 115.146Z" fill="#EC6933"/>
<path d="M428.951 81.6471C428.951 81.6471 433.358 75.4885 428.226 67.5185C425.711 63.6241 416.682 51.171 408.004 48.2162L412.74 86.0397C412.74 86.0397 414.02 86.4812 417.996 86.5378L420.046 89.0737L428.951 81.6471Z" fill="#F39FA1"/>
<path d="M400.991 39.3392L384.859 52.0614L412.096 86.5518L428.228 73.8296L400.991 39.3392Z" fill="#332A58"/>
<path d="M420.511 47.1183C423.468 8.43438 377.202 -4.35836 359.495 23.3215C352.471 34.2689 350.489 45.2503 354.669 61.2695C356.776 69.364 360.956 74.8208 364.921 78.7265C367.233 81.002 373.305 85.1116 373.044 88.7909C372.546 95.9231 366.485 110.006 366.485 110.006H391.498V90.9871C398.839 91.3947 405.931 90.806 410.904 82.1002C412.128 79.9492 413.08 77.758 414.009 74.4975C414.153 73.9913 414.676 72.9602 414.823 72.4621C414.823 72.4621 418.894 61.4707 418.894 59.8423C420.352 54.5502 420.103 51.9297 420.352 49.0202C420.398 48.7258 420.409 48.4315 420.432 48.1485C420.511 47.3447 420.568 46.9032 420.568 46.9032L420.511 47.1183Z" fill="#F39FA1"/>
<path d="M340.565 28.4495C340.826 24.4419 344.326 20.5248 353.185 16.4606C363.064 11.9435 359.937 6.36227 367.165 2.49049C373.01 -0.63411 379.354 -0.713357 384.373 1.66405C387.579 3.18107 388.938 3.37353 397.457 2.06029C403.881 1.08668 409.307 5.02639 410.791 11.4341C411.765 15.6795 411.856 19.0078 419.933 21.9739C429.019 25.3023 424.861 44.6386 415.98 44.4801C409.477 44.3442 408.412 34.495 401.162 38.0045C393.911 41.514 394.421 52.2576 384.996 54.1595C382.798 54.6124 379.388 52.9708 378.165 48.3632C376.975 43.9254 369.079 47.4349 368.66 52.801C368.411 55.9822 368.581 65.8768 376.148 63.5786C380.532 62.2427 385.166 66.0353 378.607 70.8354C375.253 73.3147 376.93 79.8129 374.415 82.5866V82.5979C374.404 82.5979 374.392 82.6092 374.381 82.6319C374.064 82.9602 373.69 83.2319 373.237 83.4357C364.366 87.6018 352.879 76.1449 350.863 73.043C348.801 69.8278 344.088 68.8429 341.811 62.5145C340.146 57.8389 341.154 53.5482 342.548 46.3933C343.941 39.2385 340.101 35.0384 340.565 28.4495Z" fill="#332A58"/>
<path d="M346.988 336.766C346.988 336.766 302.229 255.073 295.545 243.424C283.661 222.673 264.629 220.827 257.572 222.888C257.572 222.888 248.701 231.096 256.258 248.847C261.695 261.594 334.176 348.642 334.176 348.642L346.988 336.766Z" fill="#EC6933"/>
<path d="M396.424 54.0362C396.04 55.0994 396.584 56.2572 397.648 56.6412C398.711 57.0253 399.869 56.4819 400.253 55.4187C400.637 54.3555 400.093 53.1978 399.03 52.8137C397.982 52.3872 396.808 52.973 396.424 54.0362Z" fill="#505E83"/>
<path d="M410.975 59.2891C410.59 60.3527 411.134 61.5108 412.198 61.8948C413.261 62.2789 414.419 61.7353 414.803 60.6717C415.188 59.6081 414.644 58.4499 413.58 58.0659C412.517 57.6818 411.359 58.2255 410.975 59.2891Z" fill="#505E83"/>
<path d="M406.459 64.2141C406.459 64.2141 405.698 74.8155 405.116 75.4336C404.487 76.09 402.721 74.5688 402.089 72.7948C401.458 71.0209 404.319 71.226 404.319 71.226C404.319 71.226 405.27 62.9013 406.459 64.2141Z" fill="#DE6972"/>
<path d="M402.847 80.0143L393.394 75.8399C393.394 75.8399 391.876 80.7948 396.676 82.528C401.476 84.2612 402.847 80.0143 402.847 80.0143Z" fill="#DE6972"/>
<path d="M398.648 79.9053C396.976 79.126 396.268 77.9334 395.953 77.0004L402.121 79.7544C401.561 80.2545 400.56 80.7713 398.648 79.9053Z" fill="white"/>
<path d="M387.165 61.0792C386.476 62.9868 387.257 65.008 388.891 65.598C390.525 66.188 392.418 65.1323 393.106 63.2247C393.795 61.3171 393.014 59.296 391.38 58.706C389.696 58.0981 387.853 59.1716 387.165 61.0792Z" fill="#FB8585"/>
<path d="M416.532 67.7883C415.773 70.088 414.888 72.3419 413.98 74.6574C411.974 73.8636 410.796 71.7688 411.485 69.8612C412.174 67.9536 414.441 67.0331 416.532 67.7883Z" fill="#FB8585"/>
<path d="M412.653 53.8778C412.653 53.8778 416.109 54.1072 418.47 56.0857C419.091 56.1552 418.964 54.9371 417.468 54.2069C415.963 53.5107 412.477 52.6453 412.653 53.8778Z" fill="#505E83"/>
<path d="M396.303 48.8691C396.303 48.8691 399.863 48.7448 402.052 51.3128C402.687 51.3318 402.718 49.5746 401.261 48.7096C399.789 47.8956 396.299 47.0467 396.303 48.8691Z" fill="#505E83"/>
<defs>
<linearGradient id="paint0_linear" x1="90.4357" y1="110.418" x2="90.4357" y2="150.729" gradientUnits="userSpaceOnUse">
<stop stop-color="white"/>
<stop offset="1" stop-color="white" stop-opacity="0"/>
</linearGradient>
<linearGradient id="paint1_linear" x1="234.867" y1="93.412" x2="234.867" y2="114.271" gradientUnits="userSpaceOnUse">
<stop stop-color="white"/>
<stop offset="1" stop-color="white" stop-opacity="0"/>
</linearGradient>
</defs>
</svg>
