<svg width="1440" height="687" viewBox="0 0 1440 687" fill="none" xmlns="http://www.w3.org/2000/svg">
<path d="M1439 -8H0V687H1439V-8Z" fill="#C0E0FF"/>
<path d="M1000 687V528.311H995.962V512.272H834.507V528.311H808.116V567.884H780.455V392.173H749.912V381H710.155V392.173H619V687H1000Z" fill="#6193BC" fill-opacity="0.5"/>
<path d="M573.428 113.564C573.428 113.564 581.178 95.7976 603.051 97.0647C624.909 98.3317 634.794 112.937 634.794 112.937C634.794 112.937 646.782 100.239 663.01 107.855C679.237 115.472 680.644 123.088 680.644 123.088C680.644 123.088 693.345 112.937 707.437 126.262L710.253 130.704C710.253 130.704 721.53 124.355 730.703 130.063C730.703 130.063 743.403 126.248 751.153 131.971H529C529 131.971 536.054 122.447 549.45 126.262C549.45 126.262 553.689 111.03 573.428 113.564Z" fill="url(#paint0_linear)"/>
<path d="M809.365 191.119C809.365 191.119 815.738 176.499 833.713 177.543C851.688 178.588 859.81 190.59 859.81 190.59C859.81 190.59 869.664 180.147 882.998 186.413C896.332 192.678 897.493 198.944 897.493 198.944C897.493 198.944 907.934 190.59 919.521 201.547L921.841 205.195C921.841 205.195 931.123 199.974 938.656 204.68C938.656 204.68 949.098 201.547 955.471 206.24H772.826C772.826 206.24 778.627 198.415 789.641 201.547C789.641 201.561 793.122 189.03 809.365 191.119Z" fill="url(#paint1_linear)"/>
<path d="M1186.63 54.2927C1186.63 54.2927 1190.64 45.0893 1201.96 45.7576C1213.27 46.412 1218.39 53.9725 1218.39 53.9725C1218.39 53.9725 1224.59 47.4006 1232.99 51.3409C1241.39 55.2813 1242.12 59.2216 1242.12 59.2216C1242.12 59.2216 1248.7 53.9725 1255.98 60.8646L1257.44 63.162C1257.44 63.162 1263.27 59.876 1268.02 62.8278C1268.02 62.8278 1274.59 60.8507 1278.6 63.8164H1163.65C1163.65 63.8164 1167.3 58.8875 1174.23 60.8646C1174.23 60.8646 1176.41 52.9839 1186.63 54.2927Z" fill="url(#paint2_linear)"/>
<path d="M1417 151.949H933.373L938 687L1186 684.163L1417 678.489V151.949Z" fill="#8E9AFF"/>
<path d="M1450 151.77H933V687H1450V151.77Z" fill="url(#paint3_linear)"/>
<path d="M1449.58 151.949H933.373V184.041H1449.58V151.949Z" fill="url(#paint4_linear)"/>
<path d="M1450 151.77H1323V687H1450V151.77Z" fill="url(#paint5_linear)"/>
<path d="M1459 136.023H923.952V157.075H1459V136.023Z" fill="#EFDDE6"/>
<path d="M1458.98 136.023H1333.34V157.075H1458.98V136.023Z" fill="#C9C0EF"/>
<path d="M1163.19 194H1060V367.344H1163.19V194Z" fill="#EFDDE6"/>
<path d="M1163.73 197.782H1069V367.056H1163.73V197.782Z" fill="#6D92B9"/>
<path d="M1081.91 199.995L1066.85 199.995V364.215H1081.91V199.995Z" fill="#6186AE"/>
<path d="M1161.94 215.75H1102V366.52H1161.94V215.75Z" fill="#436D89"/>
<path opacity="0.22" d="M1340.86 215.754H1245.32V342.403H1340.86V215.754Z" fill="#59142E"/>
<path d="M1336.94 339.399V215.75L1244.22 215.75V339.399H1336.94Z" fill="#EFDDE6"/>
<path d="M1338.28 339.41V215.76H1336.95V339.41H1338.28Z" fill="#6D92B9"/>
<path d="M1333.11 220.134H1248.66V335.011H1333.11V220.134Z" fill="#4A72AB"/>
<path d="M1330.84 222.583H1251.83V335.01H1330.84V222.583Z" fill="#6D92B9"/>
<path d="M1330.82 222.583H1306.64V335.01H1330.82V222.583Z" fill="#84AED0"/>
<path d="M1322.64 324.984H1260.03V335.025H1322.64V324.984Z" fill="#436D89"/>
<path d="M1334.73 244.945H1246.92V247.959H1334.73V244.945Z" fill="#EFDDE6"/>
<path d="M1342.25 350.894H1240V359.104H1342.25V350.894Z" fill="#EFDDE6"/>
<path d="M1342.25 350.894H1333.23V359.104H1342.25V350.894Z" fill="#C9C0EF"/>
<path d="M1339.47 359.104H1242.82V363.483H1339.47V359.104Z" fill="#3E447D"/>
<path opacity="0.22" d="M1336.93 363.483H1245.32V378.452H1336.93V363.483Z" fill="#59142E"/>
<path d="M1164.19 413H1061V586.344H1164.19V413Z" fill="#EFDDE6"/>
<path d="M1159.96 417.069H1065.22V586.343H1159.96V417.069Z" fill="#6D92B9"/>
<path d="M1159.96 434.826H1081.68V586.343H1159.96V434.826Z" fill="#436D89"/>
<path d="M1159.96 417.069H1112.59V586.343H1159.96V417.069Z" fill="white"/>
<path opacity="0.22" d="M1341.56 428.743H1246.03V555.392H1341.56V428.743Z" fill="#59142E"/>
<path d="M1337.65 552.394V428.744H1244.93V552.394H1337.65Z" fill="#EFDDE6"/>
<path d="M1338.99 552.404V428.754H1337.66V552.404H1338.99Z" fill="#6D92B9"/>
<path d="M1333.81 433.122H1249.37V547.999H1333.81V433.122Z" fill="#4A72AB"/>
<path d="M1331.54 435.572H1252.54V547.999H1331.54V435.572Z" fill="#6D92B9"/>
<path d="M1331.54 472.494H1291.29V548.013H1331.54V472.494Z" fill="#436D89"/>
<path d="M1335.44 457.933H1247.62V460.947H1335.44V457.933Z" fill="#EFDDE6"/>
<path d="M1232.82 354.423H1194.74V366.618H1232.82V354.423Z" fill="#FF9757"/>
<path d="M1270.2 354.423H1232.11V366.618H1270.2V354.423Z" fill="#FFAE74"/>
<path d="M1251.15 342.229H1213.07V354.423H1251.15V342.229Z" fill="#EDCC8E"/>
<path d="M1040.29 161.197H1002.21V173.391H1040.29V161.197Z" fill="#EDCC8E"/>
<path d="M1140.02 26.0007H1048.63V47.0526H1140.02V26.0007Z" fill="#EFDDE6"/>
<path d="M1140.01 26H1118.55V47.0519H1140.01V26Z" fill="#C9C0EF"/>
<path d="M1299.87 36.533H1208.48V47.0659H1299.87V36.533Z" fill="#EFDDE6"/>
<path d="M1299.87 36.533H1278.41V47.0659H1299.87V36.533Z" fill="#C9C0EF"/>
<path d="M1244.81 545.542C1244.81 545.542 1244.1 538.079 1254.91 536.809C1254.91 536.809 1258.21 529.898 1273.72 530.257C1289.24 530.617 1291.36 534.809 1291.36 534.809C1291.36 534.809 1301 531.719 1308.99 536.27C1308.99 536.27 1322.62 533.719 1328.5 539.181C1328.5 539.181 1339.78 537.72 1341.66 545.554H1244.81V545.542Z" fill="#5F83A0"/>
<path d="M1244.81 350.298C1244.81 350.298 1244.1 342.835 1254.91 341.566C1254.91 341.566 1258.21 334.654 1273.72 335.014C1289.24 335.373 1291.36 339.565 1291.36 339.565C1291.36 339.565 1301 336.475 1308.99 341.027C1308.99 341.027 1322.62 338.475 1328.5 343.937C1328.5 343.937 1339.78 342.476 1341.66 350.31H1244.81V350.298Z" fill="#5F83A0"/>
<path d="M1344.59 542.284H1242.34V549.268H1344.59V542.284Z" fill="#EFDDE6"/>
<path d="M1344.59 542.284H1335.57V549.267H1344.59V542.284Z" fill="#C9C0EF"/>
<path d="M1341.8 549.279H1245.15V553.004H1341.8V549.279Z" fill="#3E447D"/>
<path opacity="0.22" d="M1339.27 553.004H1247.66V565.737H1339.27V553.004Z" fill="#59142E"/>
<path d="M972.88 241.355C972.88 241.355 969.105 243.805 967.141 250.057C965.176 256.308 963.66 266.779 963.66 266.779L971.07 268.004C971.07 268.004 978.17 256.308 979.377 249.778C980.583 243.248 975.308 240.672 972.88 241.355Z" fill="#797AD9"/>
<path d="M946.536 254.916C946.536 254.916 969.909 260.903 971.116 265.066C972.323 269.244 966.676 271.778 962.051 269.606C957.41 267.433 944.927 257.45 944.927 257.45L946.536 254.916Z" fill="#FBA894"/>
<path d="M946.164 257.785C946.164 257.785 941.075 258.007 940.518 257.854C939.945 257.715 936.48 254.29 936.48 254.29C936.48 254.29 935.831 250.363 936.156 249.639C936.48 248.915 936.805 248.693 937.285 248.623C937.764 248.553 937.44 249.793 937.44 249.793C937.44 249.793 939.945 251.603 940.827 251.979C941.709 252.341 943.813 252.633 943.813 252.633C943.813 252.633 943.488 251.616 943.488 251.254C943.488 250.892 942.111 250.168 942.606 249.152C943.333 249.082 944.215 250.029 944.942 250.322C945.669 250.614 947.448 255.919 947.448 255.919L946.164 257.785Z" fill="#FBA894"/>
<path d="M943.813 252.619C943.813 252.619 941.709 252.327 940.827 251.965C939.945 251.603 937.439 249.779 937.439 249.779L937.532 251.686L938.847 254.137L941.817 253.19C941.817 253.19 942.018 253.691 941.616 254.137C941.214 254.596 940.054 254.902 940.054 254.902C940.054 254.902 941.57 254.944 942.575 255.264C943.581 255.585 943.735 256.573 943.735 256.573L945.298 256.03C945.298 256.03 945.607 255.529 944.849 254.721C944.076 253.914 943.813 252.619 943.813 252.619Z" fill="#EA8A72"/>
<path d="M964.48 265.609C964.48 265.609 962.67 268.784 964.789 269.967C966.908 271.151 969.925 269.689 970.93 267.879C971.936 266.069 964.48 265.609 964.48 265.609Z" fill="#FBA894"/>
<path d="M978.433 356.265C978.433 356.265 979.438 363.603 979.438 364.341H964.325C964.325 364.341 960.597 364.341 965.841 361.528C968.254 360.233 971.58 360.261 972.585 358.451C973.591 356.641 973.792 355.639 973.792 355.639L978.433 356.265Z" fill="#3E4551"/>
<path d="M969.708 281.022C969.708 281.022 970.311 338.512 972.725 356.279L979.067 356.557C979.067 356.557 985.409 293.902 985.61 285.742C985.812 277.583 985.61 277.04 985.61 277.04L969.708 281.022Z" fill="#6B5865"/>
<path d="M998.945 364.452H1010.11C1010.07 361.278 1008.15 354.928 1008.15 354.928L1003.77 355.875C1003.77 355.875 1004.22 358.187 1002.12 360.359C1000.52 361.988 999.285 363.617 998.945 364.452Z" fill="#3E4551"/>
<path d="M1000.34 280.118L1009 356.279H1002.75C1002.75 356.279 992.278 320.913 990.669 315.483C989.06 310.039 977.366 280.48 977.366 280.48L1000.34 280.118Z" fill="#786B71"/>
<path d="M969.708 281.482C969.708 281.482 970.018 288.277 982.254 287.609L985.425 279.714L969.708 281.482Z" fill="#786B71"/>
<path d="M967.728 281.955C966.305 263.966 969.708 246.033 971.936 242.58C974.148 239.14 980.397 236.411 980.397 236.411L993.098 234.058C993.098 234.058 1000.55 235.506 1004.37 236.411C1008.2 237.316 1008.61 242.58 1006.39 251.644C1006.39 251.644 1002.15 269.772 1001.64 275.216C1001.13 280.674 1002.67 286.703 1002.41 288.903C1002.15 291.103 978.17 291.576 973.668 290.755C969.151 289.947 968.904 289.822 968.904 289.474C968.904 289.126 967.728 281.955 967.728 281.955Z" fill="#3F5086"/>
<path d="M983.77 230.257L981.357 236.258C981.357 236.258 980.583 240.254 986.941 238.222C991.783 236.314 994.026 234.253 994.026 234.253L990.561 222.029L983.77 230.257Z" fill="#DE776C"/>
<path d="M1003.76 236.593C1003.76 236.593 1009.2 236.955 1010.41 248.205C1011.61 259.455 1011.61 268.519 1011.61 268.519L1002.15 269.243C1002.15 269.243 995.898 248.205 995.898 243.861C995.898 239.503 1001.14 236.231 1003.76 236.593Z" fill="#3F5086"/>
<path d="M978.99 217.768C978.99 217.768 977.428 226.428 979.408 231.009C980.97 233.042 987.9 231.26 991.288 227.96C994.676 224.646 995.666 219.049 994.119 215.61C992.556 212.171 985.348 212.045 983.089 212.811C980.831 213.563 979.129 216.375 978.99 217.768Z" fill="#FBA894"/>
<path d="M979.271 216.766C979.271 216.766 985.644 214.719 990.996 219.216C991.724 221.736 990.625 227.097 990.625 227.097C990.625 227.097 995.978 225.899 997.076 219.87C997.555 213.856 994.075 213.772 994.075 213.772C994.075 213.772 993.27 210.848 988.877 209.539C984.499 208.23 976.394 208.662 979.193 216.766" fill="#505E83"/>
<path d="M991.056 224.618C991.056 224.618 993.33 222.377 994.274 224.061C995.217 225.746 990.437 228.169 990.329 226.958C990.221 225.732 991.056 224.618 991.056 224.618Z" fill="#FBA894"/>
<path d="M985.332 222.655C985.332 223.003 985.023 223.282 984.636 223.282C984.25 223.282 983.94 223.003 983.94 222.655C983.94 222.307 984.25 222.029 984.636 222.029C985.023 222.015 985.332 222.307 985.332 222.655Z" fill="#505E83"/>
<path d="M980.63 222.544C980.63 222.892 980.32 223.17 979.934 223.17C979.547 223.17 979.237 222.892 979.237 222.544C979.237 222.195 979.547 221.917 979.934 221.917C980.32 221.917 980.63 222.195 980.63 222.544Z" fill="#505E83"/>
<path d="M981.511 223.7C981.511 223.7 980.057 226.442 980.227 226.651C980.413 226.874 981.511 226.651 982.115 226.261C982.718 225.872 981.326 225.663 981.326 225.663C981.326 225.663 982.3 223.477 981.511 223.7Z" fill="#DE6972"/>
<path d="M981.063 228.183L984.188 228.002C984.188 228.002 984.11 229.311 982.563 229.311C981.016 229.311 981.063 228.183 981.063 228.183Z" fill="#DE6972"/>
<path d="M982.271 228.517C982.828 228.475 983.153 228.253 983.338 228.058L981.297 228.183C981.405 228.35 981.637 228.559 982.271 228.517Z" fill="white"/>
<path d="M984.079 221.137C984.079 221.137 985.1 220.845 985.951 221.332C986.137 221.29 985.997 220.845 985.502 220.733C985.007 220.636 983.925 220.692 984.079 221.137Z" fill="#505E83"/>
<path d="M979.253 221.068C979.253 221.068 980.274 220.776 981.125 221.263C981.31 221.221 981.171 220.776 980.676 220.664C980.181 220.567 979.098 220.608 979.253 221.068Z" fill="#505E83"/>
<path d="M986.91 225.134C986.91 225.566 986.493 225.914 985.982 225.914C985.472 225.914 985.054 225.566 985.054 225.134C985.054 224.702 985.472 224.354 985.982 224.354C986.508 224.354 986.91 224.702 986.91 225.134Z" fill="#FB8585"/>
<path d="M978.418 224.354C978.402 224.869 978.418 225.385 978.433 225.914C978.928 225.9 979.346 225.566 979.346 225.134C979.346 224.702 978.928 224.354 978.418 224.354Z" fill="#FB8585"/>
<path d="M986.833 258.174C986.833 258.174 1010.21 264.161 1011.41 268.324C1012.62 272.501 1006.97 275.035 1002.35 272.863C997.708 270.691 985.224 260.708 985.224 260.708L986.833 258.174Z" fill="#FBA894"/>
<path d="M976.36 253.928C976.36 253.928 977.721 253.761 977.907 255.32C978.092 256.88 976.035 257.52 974.488 256.545" stroke="white" stroke-width="0.5" stroke-miterlimit="10"/>
<path d="M967.156 253.301C967.187 255.807 969.337 257.826 971.982 257.826C974.627 257.826 976.778 255.807 976.809 253.301H967.156Z" fill="white"/>
<path d="M987.127 257.994C987.127 257.994 984.946 254.499 983.646 253.733C982.362 253.093 981.79 254.513 981.79 254.513C981.79 254.513 978.062 253.872 976.484 254.777C975.479 255.682 976.778 256.198 976.778 256.198C976.778 256.198 977.211 259.428 979.207 260.834C981.218 261.99 985.332 260.82 985.332 260.82C985.332 260.82 987.591 260.723 987.127 257.994Z" fill="#FBA894"/>
<path d="M1056.48 545.137H1050.29V587.103H1056.48V545.137Z" fill="#DFDFDF"/>
<path d="M1070.27 584.973H1036.49V587.103H1070.27V584.973Z" fill="#DFDFDF"/>
<path d="M1070.27 584.973H1058.87V587.103H1070.27V584.973Z" fill="#A0A0A0"/>
<path d="M1056.48 545.137H1050.29V550.707H1056.48V545.137Z" fill="#A0A0A0"/>
<path d="M1043.17 546.432C1045.37 546.432 1047.35 545.221 1048.15 543.369L1062.25 510.858C1063.9 507.015 1068.02 504.495 1072.59 504.495H1088.42C1091.95 504.495 1094.36 507.683 1093.08 510.635L1078.89 543.369C1078.09 545.221 1076.11 546.432 1073.91 546.432H1043.2" fill="#FFCD4A"/>
<path d="M1072.59 546.433H1029.43C1028.63 546.433 1028 545.848 1028 545.138C1028 544.414 1028.65 543.843 1029.43 543.843H1072.59V546.433Z" fill="#FFCD4A"/>
<path d="M1050.6 484.89C1050.6 484.89 1045.6 485.768 1038.98 494.386C1032.37 503.005 1030.05 507.474 1022.13 508.059C1014.2 508.658 1010.24 511.039 1011.89 513.712C1013.55 516.385 1017.18 521.44 1027.75 520.256C1038.31 519.073 1049.89 513.42 1051.2 506.876C1052.53 500.345 1059.23 486.102 1050.6 484.89Z" fill="#FAE6DF"/>
<path d="M1049.71 460.051C1049.71 460.051 1046 460.719 1044.76 465.398C1043.53 470.076 1049.41 470.466 1050.3 473.849C1051.2 477.219 1046 478.11 1050.7 482.579C1055.41 487.035 1060.62 483.693 1061.86 487.926C1063.1 492.158 1066.56 494.623 1072.27 493.955C1077.96 493.286 1080.45 489.054 1078.7 484.139C1076.97 479.237 1075.24 481.911 1072.27 479.46C1069.3 477.01 1072.27 474.114 1069.79 471.204C1067.32 468.308 1065.09 468.53 1064.35 465.634C1063.59 462.724 1061.86 457.378 1049.71 460.051Z" fill="#FFBB18"/>
<path d="M1010.75 560.815C1010.75 560.815 1010.07 562.82 1009.19 563.655C1008.3 564.491 1004.33 567.665 1002.91 567.832C1001.5 567.986 1000.32 568.835 1000.03 568.737C999.734 568.64 1000.24 568.71 1001.9 569.03C1003.57 569.364 1004.02 570.213 1006.4 569.851C1008.78 569.503 1009.39 568.264 1010.33 567.86C1011.27 567.456 1013.35 567.61 1014.12 567.345C1014.89 567.081 1014.62 564.672 1014.62 564.672L1016.36 561.386L1010.75 560.815Z" fill="#FBA894"/>
<path d="M1008.4 573.624C1009.23 573.346 1010.66 572.524 1010.66 572.524L1010.02 574.14L1012.03 574.78C1012.59 573.513 1014.94 568.069 1014.71 567.637C1014.45 567.15 1012.91 567.22 1011.89 567.401C1010.02 567.749 1006.93 569.712 1006.93 569.712C1007.73 566.941 1005.72 566.064 1005.72 566.064C999.657 568.236 999.425 567.623 996.996 568.375C995.527 568.821 995.171 569.183 995.109 569.392L1008.4 573.624Z" fill="#505E83"/>
<path d="M1032.96 572.469C1032.96 572.469 1031.91 577.816 1031.69 578.665C1031.48 579.528 1027.45 585.432 1027.45 585.432H1036.98C1036.98 585.432 1037.51 581.909 1037.62 577.607C1037.73 573.318 1037.83 570.074 1037.83 570.074L1032.96 572.469Z" fill="#FBA894"/>
<path d="M1036.44 587.061C1036.61 586.713 1036.67 586.393 1036.67 586.393L1036.77 587.061H1038.21L1037.62 578.192L1036.88 584.109C1036.88 584.109 1035.08 582.578 1032.22 581.909C1029.36 581.241 1027.56 584.193 1027.56 584.193C1026.56 585.32 1026.12 586.379 1025.92 587.061H1036.44Z" fill="#505E83"/>
<path d="M1043.22 519.267C1043.22 519.267 1043.59 520.033 1042.85 517.026C1042.1 514.018 1040.43 505.845 1039.88 500.513C1039.32 495.18 1045.43 487.828 1045.43 487.828C1045.43 487.828 1048.77 484.821 1051.35 484.152C1053.95 483.484 1061.36 483.484 1061.36 483.484C1061.36 483.484 1071.93 483.317 1074.16 489.485C1076.69 493.161 1070.75 502.991 1070.44 504.328C1068.05 514.882 1066.41 519.073 1066.19 519.309C1066.19 519.309 1057.57 522.915 1050.91 522.414C1044.24 521.941 1043.22 519.267 1043.22 519.267Z" fill="#FAE6DF"/>
<path d="M1052.17 475.882C1052.17 475.882 1053.94 482.05 1050.6 484.89C1051.15 486.06 1053.19 487.814 1056.71 486.979C1060.23 486.144 1061.35 484.723 1061.7 483.971C1061.61 482.718 1060.13 478.555 1060.59 474.295L1052.17 475.882Z" fill="#C26767"/>
<path d="M1047.02 465.871C1047.02 465.871 1046.28 470.034 1046.53 473.988C1046.74 477.441 1050.67 479.613 1054.2 478.221C1055.86 477.566 1057.46 476.62 1058.64 475.478C1061.84 472.359 1062.79 467.068 1061.32 463.824C1059.85 460.58 1053.04 460.454 1050.91 461.178C1048.76 461.902 1047.15 464.548 1047.02 465.871Z" fill="#D47367"/>
<path d="M1059.34 472.094C1059.34 472.094 1061.87 469.602 1062.91 471.468C1063.95 473.334 1058.66 476.021 1058.53 474.684C1058.42 473.334 1059.34 472.094 1059.34 472.094Z" fill="#FBA894"/>
<path d="M1054.4 470.243C1054.4 470.605 1054.08 470.911 1053.66 470.911C1053.26 470.911 1052.92 470.619 1052.92 470.243C1052.92 469.881 1053.24 469.574 1053.66 469.574C1054.06 469.574 1054.4 469.881 1054.4 470.243Z" fill="#505E83"/>
<path d="M1049.44 470.131C1049.44 470.493 1049.11 470.8 1048.69 470.8C1048.29 470.8 1047.95 470.507 1047.95 470.131C1047.95 469.769 1048.28 469.463 1048.69 469.463C1049.11 469.477 1049.44 469.769 1049.44 470.131Z" fill="#505E83"/>
<path d="M1049.79 474.879L1053.07 474.685C1053.07 474.685 1052.98 476.063 1051.37 476.063C1049.75 476.063 1049.79 474.879 1049.79 474.879Z" fill="#BB4B48"/>
<path d="M1051.08 475.214C1051.66 475.172 1052.01 474.935 1052.21 474.727L1050.07 474.852C1050.15 475.047 1050.4 475.27 1051.08 475.214Z" fill="white"/>
<path d="M1053.07 468.656C1053.07 468.656 1054.14 468.349 1055.04 468.865C1055.22 468.823 1055.08 468.349 1054.57 468.238C1054.06 468.127 1052.9 468.182 1053.07 468.656Z" fill="#505E83"/>
<path d="M1048 468.586C1048 468.586 1049.06 468.279 1049.96 468.795C1050.15 468.753 1050.01 468.279 1049.5 468.168C1048.99 468.057 1047.83 468.098 1048 468.586Z" fill="#505E83"/>
<path d="M1056.06 472.861C1056.06 473.32 1055.62 473.682 1055.08 473.682C1054.54 473.682 1054.11 473.32 1054.11 472.861C1054.11 472.401 1054.54 472.039 1055.08 472.039C1055.62 472.039 1056.06 472.401 1056.06 472.861Z" fill="#FB8585"/>
<path d="M1048.74 472.861C1048.74 473.32 1048.31 473.682 1047.77 473.682C1047.22 473.682 1046.79 473.32 1046.79 472.861C1046.79 472.401 1047.22 472.039 1047.77 472.039C1048.31 472.039 1048.74 472.401 1048.74 472.861Z" fill="#FB8585"/>
<path d="M1050.89 472.22C1050.89 472.22 1050.19 473.654 1050.3 473.835C1050.41 474.03 1051.15 473.738 1051.15 473.738C1051.15 473.738 1051.42 472.317 1050.89 472.22Z" fill="#B85867"/>
<path d="M1060.9 474.671C1060.9 475.019 1060.59 475.297 1060.2 475.297C1059.82 475.297 1059.51 475.019 1059.51 474.671C1059.51 474.322 1059.82 474.044 1060.2 474.044C1060.59 474.044 1060.9 474.336 1060.9 474.671Z" fill="#FAD9DD"/>
<path d="M1042.85 517.04C1042.85 517.04 1061.75 518.683 1066.73 517.541C1068.73 519.072 1068.73 536.63 1065.43 540.194C1062.12 543.759 1043.96 542.575 1042.63 543.759C1041.32 544.942 1038.67 570.227 1038.67 572.009C1037.68 573.792 1034.04 573.499 1031.72 573.193C1029.4 572.901 1026.77 543.745 1026.77 543.745C1026.77 543.745 1019.18 560.69 1017.85 562.18C1016.53 563.669 1009.91 562.179 1010.25 559.506C1011.57 555.942 1015.87 531.255 1019.5 527.092C1023.46 525.004 1040.97 523.528 1040.97 523.528L1042.29 520.548L1042.85 517.04Z" fill="#EACFCD"/>
<path d="M1048.23 461.165C1048.23 461.165 1046.74 463.392 1049.22 464.061C1051.7 464.729 1053.18 464.061 1054.42 465.62C1055.66 467.18 1053.68 469.63 1056.4 470.967C1059.12 472.303 1057.12 472.164 1058.63 475.464C1060.13 478.764 1062.6 478.541 1064.58 477.205C1066.56 475.868 1067.55 472.081 1065.82 470.062C1064.09 468.057 1063.1 466.943 1062.85 464.27C1062.6 461.596 1059.88 460.482 1058.15 460.26C1056.41 460.037 1055.18 459.814 1052.21 459.591C1049.22 459.382 1048.48 460.051 1048.23 461.165Z" fill="#FFBB18"/>
<path d="M1068.66 484.724C1068.66 484.724 1080 489.43 1084.91 499.51C1089.81 509.605 1077.17 520.159 1064.53 515.411C1051.9 510.649 1052.93 503.576 1054.87 499.858C1056.8 496.141 1064.8 493.941 1065.31 490.112C1065.83 486.283 1066.85 484.598 1068.66 484.724Z" fill="#FAE6DF"/>
<path d="M992.68 497.13C992.68 497.13 997.506 495.501 1002.55 501.251C1007.19 506.472 1003.63 515.133 995 516.4C986.678 517.625 981.666 514.144 979.918 508.909C978.17 503.674 985.92 503.507 988.039 500.722C990.159 497.937 991.257 497.589 992.68 497.13Z" fill="#FAE6DF"/>
<path d="M1015.11 511.179C1014.62 510.9 1008.92 510.649 1005.83 509.09C1005.83 509.09 1004.87 507.35 1003.51 506.653C1002.15 505.957 999.641 504.565 999.641 505.609C999.641 506.653 1002.55 507.531 1002.55 508.227C1002.55 508.923 1003.14 511.541 1004.48 512.404C1005.83 513.267 1012.99 515.189 1014.92 515.189C1016.86 515.189 1016.66 512.042 1015.11 511.179Z" fill="#D47367"/>
<path d="M984.945 511.693C986.013 511.693 986.879 510.914 986.879 509.953C986.879 508.992 986.013 508.212 984.945 508.212C983.877 508.212 983.012 508.992 983.012 509.953C983.012 510.914 983.877 511.693 984.945 511.693Z" fill="#FA827A"/>
<path d="M991.906 514.367C992.974 514.367 993.84 513.588 993.84 512.626C993.84 511.665 992.974 510.886 991.906 510.886C990.838 510.886 989.973 511.665 989.973 512.626C989.973 513.588 990.838 514.367 991.906 514.367Z" fill="#AC6895"/>
<path d="M998.466 512.501C999.533 512.501 1000.4 511.721 1000.4 510.76C1000.4 509.799 999.533 509.02 998.466 509.02C997.398 509.02 996.532 509.799 996.532 510.76C996.532 511.721 997.398 512.501 998.466 512.501Z" fill="#619EC9"/>
<path d="M1036.94 494.317C1036.94 494.317 1044.84 491.212 1045.54 491.309C1045.94 491.56 1046.16 491.755 1045.57 492.089C1044.98 492.423 1034.11 496.809 1033.22 496.447C1032.34 496.085 1036.09 494.54 1036.94 494.317Z" fill="#3E447D"/>
<path d="M1063.25 506.124C1063.25 506.124 1067.3 505.428 1066.93 502.643C1066.34 499.858 1059.01 495.514 1056.49 494.637C1053.97 493.76 1047.02 491.156 1045.07 491.323C1043.91 491.49 1041.39 492.368 1040.82 492.883C1040.25 493.398 1042.37 493.412 1042.37 493.412C1042.37 493.412 1046.42 495.667 1047.97 495.667C1049.51 495.667 1051.06 495.5 1051.65 495.835C1052.24 496.169 1060.74 505.609 1063.25 506.124Z" fill="#D47367"/>
<path d="M1033.98 495.737C1033.98 495.737 1033.33 495.333 1032.25 495.682C1031.15 496.03 1030.83 497.366 1029.87 497.366C1030.58 497.714 1032.96 497.826 1033.86 496.907C1034.76 495.974 1033.98 495.737 1033.98 495.737Z" fill="#FAE6DF"/>
<path d="M1057.16 457.392L1058.02 455.832L1056.86 455.136C1056.07 455.248 1055.83 456.32 1055.75 457.002C1054.57 456.71 1053.41 456.529 1052.42 456.529C1047.97 456.529 1047.41 459.397 1050.49 460.399C1050.49 460.399 1058.22 463.838 1061.5 461.917C1063.78 460.594 1060.73 458.547 1057.16 457.392Z" fill="#5F6B8A"/>
<path d="M943.364 451.237H939.76V590.472H943.364V451.237Z" fill="#3E447D"/>
<path d="M963.087 463.574H959.483V590.486H963.087V463.574Z" fill="#3E447D"/>
<path d="M978.944 534.779H928.932L916.557 457.74H966.568L978.944 534.779Z" fill="#EFDDE6"/>
<path d="M982.548 533.386H926.348V536.63H982.548V533.386Z" fill="#3E447D"/>
<path d="M900.669 591.6V520.925H1166.46V591.6" stroke="#3E447D" stroke-width="1.8236" stroke-miterlimit="10"/>
<path d="M1102.29 520.925V591.6" stroke="#3E447D" stroke-width="1.8236" stroke-miterlimit="10"/>
<path d="M924.569 520.925V589.247" stroke="#3E447D" stroke-width="1.8236" stroke-miterlimit="10"/>
<path d="M947.139 520.925V589.247" stroke="#3E447D" stroke-width="1.8236" stroke-miterlimit="10"/>
<path d="M969.708 520.925V589.247" stroke="#3E447D" stroke-width="1.8236" stroke-miterlimit="10"/>
<path d="M992.278 520.925V589.247" stroke="#3E447D" stroke-width="1.8236" stroke-miterlimit="10"/>
<path d="M1014.85 520.925V589.247" stroke="#3E447D" stroke-width="1.8236" stroke-miterlimit="10"/>
<path d="M1037.42 520.925V589.247" stroke="#3E447D" stroke-width="1.8236" stroke-miterlimit="10"/>
<path d="M1059.97 520.925V589.247" stroke="#3E447D" stroke-width="1.8236" stroke-miterlimit="10"/>
<path d="M1082.54 520.925V589.247" stroke="#3E447D" stroke-width="1.8236" stroke-miterlimit="10"/>
<path d="M1122.98 520.925V589.247" stroke="#3E447D" stroke-width="1.8236" stroke-miterlimit="10"/>
<path d="M1146.49 520.925V589.247" stroke="#3E447D" stroke-width="1.8236" stroke-miterlimit="10"/>
<path d="M1172.71 586.838H896.833V596.362H1172.71V586.838Z" fill="#EFDDE6"/>
<path d="M1172.71 586.838H1152.83V596.362H1172.71V586.838Z" fill="#C9C0EF"/>
<path d="M1168.87 596.362H900.669V601.444H1168.87V596.362Z" fill="#3E447D"/>
<path opacity="0.22" d="M1166.46 601.444H986.755V618.793H1166.46V601.444Z" fill="#59142E"/>
<path d="M900.669 368.171V297.481H1166.46V368.171" stroke="#3E447D" stroke-width="1.8236" stroke-miterlimit="10"/>
<path d="M1102.29 297.48V368.17" stroke="#3E447D" stroke-width="1.8236" stroke-miterlimit="10"/>
<path d="M924.569 297.48V365.803" stroke="#3E447D" stroke-width="1.8236" stroke-miterlimit="10"/>
<path d="M947.139 297.48V365.803" stroke="#3E447D" stroke-width="1.8236" stroke-miterlimit="10"/>
<path d="M969.708 297.48V365.803" stroke="#3E447D" stroke-width="1.8236" stroke-miterlimit="10"/>
<path d="M992.278 297.48V365.803" stroke="#3E447D" stroke-width="1.8236" stroke-miterlimit="10"/>
<path d="M1014.85 297.48V365.803" stroke="#3E447D" stroke-width="1.8236" stroke-miterlimit="10"/>
<path d="M1037.42 297.48V365.803" stroke="#3E447D" stroke-width="1.8236" stroke-miterlimit="10"/>
<path d="M1059.97 297.48V365.803" stroke="#3E447D" stroke-width="1.8236" stroke-miterlimit="10"/>
<path d="M1082.54 297.48V365.803" stroke="#3E447D" stroke-width="1.8236" stroke-miterlimit="10"/>
<path d="M1122.98 297.48V365.803" stroke="#3E447D" stroke-width="1.8236" stroke-miterlimit="10"/>
<path d="M1146.49 297.48V365.803" stroke="#3E447D" stroke-width="1.8236" stroke-miterlimit="10"/>
<path d="M1172.71 363.408H896.833V372.932H1172.71V363.408Z" fill="#EFDDE6"/>
<path d="M1172.71 363.408H1152.83V372.932H1172.71V363.408Z" fill="#C9C0EF"/>
<path d="M1168.87 372.932H900.669V378.014H1168.87V372.932Z" fill="#3E447D"/>
<path opacity="0.22" d="M1166.46 378.014H986.755V395.363H1166.46V378.014Z" fill="#59142E"/>
<path d="M452.328 466.641V413.911H161.232V466.641" stroke="white" stroke-width="1.8236" stroke-miterlimit="10"/>
<path d="M231.507 413.909V466.639" stroke="white" stroke-width="1.8236" stroke-miterlimit="10"/>
<path d="M426.153 413.909V464.884" stroke="white" stroke-width="1.8236" stroke-miterlimit="10"/>
<path d="M401.435 413.909V464.884" stroke="white" stroke-width="1.8236" stroke-miterlimit="10"/>
<path d="M376.716 413.909V464.884" stroke="white" stroke-width="1.8236" stroke-miterlimit="10"/>
<path d="M351.998 413.909V464.884" stroke="white" stroke-width="1.8236" stroke-miterlimit="10"/>
<path d="M327.28 413.909V464.884" stroke="white" stroke-width="1.8236" stroke-miterlimit="10"/>
<path d="M302.579 413.909V464.884" stroke="white" stroke-width="1.8236" stroke-miterlimit="10"/>
<path d="M277.86 413.909V464.884" stroke="white" stroke-width="1.8236" stroke-miterlimit="10"/>
<path d="M253.142 413.909V464.884" stroke="white" stroke-width="1.8236" stroke-miterlimit="10"/>
<path d="M208.856 413.909V464.884" stroke="white" stroke-width="1.8236" stroke-miterlimit="10"/>
<path d="M183.104 413.909V464.884" stroke="white" stroke-width="1.8236" stroke-miterlimit="10"/>
<path d="M154.388 470.191H456.53V463.087H154.388V470.191Z" fill="url(#paint6_linear)"/>
<path d="M154.397 470.194H176.168V463.09H154.397V470.194Z" fill="#C9C0EF"/>
<path d="M158.597 473.98H452.335V470.189H158.597V473.98Z" fill="#936D57"/>
<path opacity="0.22" d="M161.227 486.92H358.041V473.979H161.227V486.92Z" fill="#59142E"/>
<path d="M356.23 456.431H525.141V418.096H356.23V456.431Z" fill="#8E9AFF"/>
<path d="M356.245 456.436H525.155V418.101H356.245V456.436Z" fill="url(#paint7_linear)"/>
<path d="M356.245 423.387H525.155V418.101H356.245V423.387Z" fill="url(#paint8_linear)"/>
<path d="M356.245 456.436H403.309V418.101H356.245V456.436Z" fill="url(#paint9_linear)"/>
<path d="M352.757 419.383H528.647V414.127H352.757V419.383Z" fill="#EFDDE6"/>
<path d="M352.758 419.383H399.348V414.127H352.758V419.383Z" fill="#C9C0EF"/>
<path d="M123.318 683.468H622.121L622.121 448.567H123.318L123.318 683.468Z" fill="#8E9AFF"/>
<path d="M123.328 687H622.131V569.55V452.099H123.328V687Z" fill="url(#paint10_linear)"/>
<path opacity="0.34" d="M353.178 484.579V531.011L282.022 543.951V687H353.178H622.131V531.011V484.579H353.178Z" fill="url(#paint11_linear)"/>
<path opacity="0.36" d="M123.328 462.43H622.131V460.617H123.328V462.43Z" fill="url(#paint12_linear)"/>
<path opacity="0.36" d="M123.328 464.868H622.131V463.895H123.328V464.868Z" fill="url(#paint13_linear)"/>
<path opacity="0.36" d="M123.328 473.563H622.131V472.59H123.328V473.563Z" fill="url(#paint14_linear)"/>
<path d="M123.328 456.886H622.131V448.573H123.328V456.886Z" fill="url(#paint15_linear)"/>
<path d="M123 629.162H262V448.316H123V629.162Z" fill="url(#paint16_linear)"/>
<path d="M113 450.585H632.438V442.321H113V450.585Z" fill="#EFDDE6"/>
<path d="M113.002 450.585H250.604V442.321H113.002V450.585Z" fill="#C9C0EF"/>
<path opacity="0.36" d="M305.69 510.723H297.71V518.773H305.69V510.723Z" fill="url(#paint17_linear)"/>
<path opacity="0.36" d="M362.073 510.723H354.093V518.772H362.073V510.723Z" fill="url(#paint18_linear)"/>
<path opacity="0.36" d="M418.455 510.723H410.476V518.772H418.455V510.723Z" fill="url(#paint19_linear)"/>
<path opacity="0.36" d="M474.838 510.723H466.858V518.772H474.838V510.723Z" fill="url(#paint20_linear)"/>
<path opacity="0.36" d="M531.221 510.723H523.241V518.772H531.221V510.723Z" fill="url(#paint21_linear)"/>
<path opacity="0.36" d="M587.603 510.723H579.624V518.772H587.603V510.723Z" fill="url(#paint22_linear)"/>
<path d="M589.653 650.094H465.3V654.591H589.653V650.094Z" fill="url(#paint23_linear)"/>
<path d="M584.249 540.719H472.263V645.836H584.249V540.719Z" fill="#EFDDE6"/>
<path d="M584.249 540.719H472.263V645.836H584.249V540.719Z" fill="#EFDDE6"/>
<path d="M578.59 550.18H477.921V636.353H578.59V550.18Z" fill="#A6816B"/>
<path d="M565.714 562.498H490.797V636.364H565.714V562.498Z" fill="#6D4557"/>
<path d="M592.737 538.818H463.758V547.345H592.737V538.818Z" fill="#EFDDE6"/>
<path d="M592.737 642.99H463.758V651.517H592.737V642.99Z" fill="#EFDDE6"/>
<path d="M582.707 568.49H476.634V570.703H582.707V568.49Z" fill="#EFDDE6"/>
<path d="M423.606 650.094H299.252V654.592H423.606V650.094Z" fill="url(#paint24_linear)"/>
<path d="M418.184 540.719H306.198V645.836H418.184V540.719Z" fill="#EFDDE6"/>
<path d="M412.526 550.18H311.857V636.354H412.526V550.18Z" fill="#A6816B"/>
<path d="M399.65 562.499H324.733V636.364H399.65V562.499Z" fill="#6D4557"/>
<path d="M426.689 538.82H297.71V547.347H426.689V538.82Z" fill="#EFDDE6"/>
<path d="M426.689 642.991H297.71V651.518H426.689V642.991Z" fill="#EFDDE6"/>
<path d="M416.643 568.491H310.569V570.704H416.643V568.491Z" fill="#EFDDE6"/>
<path d="M174.882 473.653H216.593V464.659H174.882V473.653Z" fill="#C7926D"/>
<path d="M154.03 482.652H195.741V473.657H154.03V482.652Z" fill="#AC7C57"/>
<path d="M113.09 482.652H154.801V473.657H113.09V482.652Z" fill="#936D57"/>
<path d="M133.943 473.653H175.654V464.659H133.943V473.653Z" fill="#EDB38E"/>
<path d="M339.405 495.904H381.116V486.91H339.405V495.904Z" fill="#AC7C57"/>
<path d="M298.466 495.904H340.177V486.91H298.466V495.904Z" fill="#936D57"/>
<path d="M319.318 486.906H361.029V477.912H319.318V486.906Z" fill="#EDB38E"/>
<path d="M556.344 364.13C556.344 364.13 546.654 365.847 547.907 378.119C548.839 387.689 540.402 408.068 536.353 416.666C532.287 425.265 539.47 433.85 551.973 432.372C564.477 430.895 580.775 383.323 570.898 370.532C566.34 367.577 556.344 364.13 556.344 364.13Z" fill="#E57C18"/>
<path d="M566.374 391.483C566.374 391.483 568.831 389.18 574.659 394.571C580.487 399.975 588.195 411.262 592.566 412.087C596.937 412.899 619.656 399.482 619.656 399.482C619.656 399.482 621.537 399.815 622.164 401.452C622.367 403.249 601.546 418.144 595.497 420.433C589.449 422.722 569.881 407.988 565.713 403.09C561.546 398.178 564.138 392.481 566.374 391.483Z" fill="#FBA894"/>
<path d="M575.371 442.821L573.558 431.76C567.713 432.159 560.275 434.462 557.124 442.821H575.371Z" fill="#248FA0"/>
<path d="M571.813 442.821H572.846C577.776 433.956 574.676 425.411 574.676 425.411L571.813 442.821Z" fill="#F07846"/>
<path d="M548.433 427.461C543.283 433.331 540.148 436.046 538.454 442.821H566.781C569.678 437.351 571.084 433.278 569.475 429.83L548.433 427.461Z" fill="#F07846"/>
<path d="M575.692 429.324C575.692 429.324 575.218 430.163 576.167 426.862C577.099 423.561 579.199 414.563 579.911 408.68C580.606 402.81 572.897 394.73 572.897 394.73C572.897 394.73 568.695 391.429 565.426 390.684C562.156 389.952 552.804 389.952 552.804 389.952C552.804 389.952 540.487 391.363 535.964 397.153C532.762 401.199 540.47 411.555 541.351 412.899C551.33 428.126 546.451 429.124 546.722 429.391C546.722 429.391 557.582 433.357 566.002 432.798C574.388 432.252 575.692 429.324 575.692 429.324Z" fill="#EACFCD"/>
<path d="M564.392 381.567C564.392 381.567 562.173 388.355 566.374 391.483C565.68 392.774 563.104 394.691 558.666 393.772C554.227 392.854 552.821 391.297 552.363 390.471C552.482 389.1 554.345 384.508 553.769 379.823L564.392 381.567Z" fill="#E68E7D"/>
<path d="M570.898 370.545C570.898 370.545 571.846 375.124 571.524 379.477C571.253 383.27 566.289 385.666 561.851 384.135C559.767 383.416 557.734 382.378 556.26 381.114C552.228 377.68 551.042 371.863 552.888 368.282C554.735 364.715 563.325 364.582 566.018 365.367C568.695 366.179 570.728 369.081 570.898 370.545Z" fill="#FBA894"/>
<path d="M555.362 377.387C555.362 377.387 552.177 374.645 550.872 376.708C549.568 378.758 556.243 381.726 556.378 380.235C556.514 378.758 555.362 377.387 555.362 377.387Z" fill="#FBA894"/>
<path d="M561.579 375.35C561.579 375.75 562.003 376.083 562.511 376.083C563.02 376.083 563.443 375.75 563.443 375.35C563.443 374.951 563.02 374.618 562.511 374.618C562.003 374.632 561.579 374.951 561.579 375.35Z" fill="#505E83"/>
<path d="M567.831 375.244C567.831 375.643 568.255 375.976 568.763 375.976C569.271 375.976 569.695 375.643 569.695 375.244C569.695 374.845 569.271 374.512 568.763 374.512C568.255 374.512 567.831 374.831 567.831 375.244Z" fill="#505E83"/>
<path d="M567.391 380.448L563.257 380.235C563.257 380.235 563.358 381.753 565.408 381.753C567.441 381.766 567.391 380.448 567.391 380.448Z" fill="#DE6972"/>
<path d="M565.781 380.834C565.036 380.794 564.612 380.528 564.358 380.302L567.052 380.435C566.95 380.634 566.628 380.887 565.781 380.834Z" fill="white"/>
<path d="M563.257 373.606C563.257 373.606 561.918 373.274 560.783 373.833C560.546 373.793 560.732 373.26 561.376 373.141C562.02 373.021 563.477 373.087 563.257 373.606Z" fill="#505E83"/>
<path d="M569.661 373.527C569.661 373.527 568.323 373.194 567.188 373.753C566.95 373.713 567.137 373.181 567.78 373.061C568.424 372.941 569.864 372.994 569.661 373.527Z" fill="#505E83"/>
<path d="M560.716 379.144C561.399 379.144 561.952 378.739 561.952 378.239C561.952 377.739 561.399 377.334 560.716 377.334C560.032 377.334 559.479 377.739 559.479 378.239C559.479 378.739 560.032 379.144 560.716 379.144Z" fill="#FB8585"/>
<path d="M569.932 379.144C570.615 379.144 571.169 378.739 571.169 378.239C571.169 377.739 570.615 377.334 569.932 377.334C569.249 377.334 568.695 377.739 568.695 378.239C568.695 378.739 569.249 379.144 569.932 379.144Z" fill="#FB8585"/>
<path d="M566.002 377.547C566.002 377.547 566.866 379.117 566.73 379.33C566.595 379.543 565.663 379.224 565.663 379.224C565.663 379.224 565.341 377.64 566.002 377.547Z" fill="#DE6972"/>
<path d="M553.38 380.235C553.38 380.621 553.77 380.927 554.261 380.927C554.752 380.927 555.142 380.621 555.142 380.235C555.142 379.849 554.752 379.543 554.261 379.543C553.77 379.543 553.38 379.863 553.38 380.235Z" fill="#FAD9DD"/>
<path d="M538.217 396.235C538.217 396.235 543.012 394.331 547.687 401.692C552.38 409.053 557.683 420.846 564.867 427.714C572.05 434.582 592.685 449.569 595.176 450.301C596.734 450.794 592.99 452.271 591.11 452.271C589.229 452.271 562.359 437.297 555.481 431.401C548.602 425.504 539.233 412.247 535.489 406.364C531.762 400.467 535.93 396.195 538.217 396.235Z" fill="#FBA894"/>
<path d="M587.484 450.741C587.484 450.741 588.517 452.498 591.397 452.87C594.278 453.23 598.716 451.247 600.275 451.233C601.851 451.22 604.358 452.365 604.934 451.939C605.51 451.513 602.274 449.822 600.495 449.49C598.716 449.157 593.227 449.263 591.804 449.144C590.381 449.01 587.484 450.741 587.484 450.741Z" fill="#FBA894"/>
<path d="M619.673 399.482C619.673 399.482 621.334 398.497 621.961 396.408C622.587 394.318 623.672 392.721 624.468 393.213C625.247 393.706 624.163 395.542 624.163 396.647C624.163 397.752 624.79 400.574 623.858 401.306C622.926 402.038 621.673 401.918 621.673 401.918L619.673 399.482Z" fill="#FBA894"/>
<path d="M563.528 366.592C563.528 366.592 561.969 380.089 551.974 382.552C550.093 381.074 544.79 370.772 554.159 364.875C564.155 360.217 571.033 365.115 572.592 370.026C574.15 374.938 571.965 375.923 571.965 375.923C571.965 375.923 570.084 368.549 563.528 366.592Z" fill="#E57C18"/>
<path d="M606.067 449.973H600.425C599.341 449.973 598.443 449.327 598.443 448.52V438.582H608.049V448.52C608.049 449.327 607.168 449.973 606.067 449.973Z" fill="#FAE6DF"/>
<defs>
<linearGradient id="paint0_linear" x1="640.076" y1="92.6195" x2="640.076" y2="142.131" gradientUnits="userSpaceOnUse">
<stop stop-color="white"/>
<stop offset="1" stop-color="white" stop-opacity="0"/>
</linearGradient>
<linearGradient id="paint1_linear" x1="864.159" y1="173.899" x2="864.159" y2="214.608" gradientUnits="userSpaceOnUse">
<stop stop-color="white"/>
<stop offset="1" stop-color="white" stop-opacity="0"/>
</linearGradient>
<linearGradient id="paint2_linear" x1="1221.12" y1="43.4548" x2="1221.12" y2="69.075" gradientUnits="userSpaceOnUse">
<stop stop-color="white"/>
<stop offset="1" stop-color="white" stop-opacity="0"/>
</linearGradient>
<linearGradient id="paint3_linear" x1="941.93" y1="47.3277" x2="1246.61" y2="734.653" gradientUnits="userSpaceOnUse">
<stop stop-color="#FFD693"/>
<stop offset="1" stop-color="#EC5200"/>
</linearGradient>
<linearGradient id="paint4_linear" x1="933.367" y1="167.998" x2="1449.57" y2="167.998" gradientUnits="userSpaceOnUse">
<stop stop-color="#FF9B5B"/>
<stop offset="1" stop-color="#BD5200"/>
</linearGradient>
<linearGradient id="paint5_linear" x1="1701.07" y1="419.384" x2="1387.67" y2="419.384" gradientUnits="userSpaceOnUse">
<stop stop-color="#FF9B5B"/>
<stop offset="1" stop-color="#BD5200"/>
</linearGradient>
<linearGradient id="paint6_linear" x1="357.535" y1="387.041" x2="333.069" y2="486.557" gradientUnits="userSpaceOnUse">
<stop stop-color="#FFC87A"/>
<stop offset="1" stop-color="#89525E"/>
</linearGradient>
<linearGradient id="paint7_linear" x1="481.733" y1="391.126" x2="451.067" y2="482.861" gradientUnits="userSpaceOnUse">
<stop stop-color="#FFC87A"/>
<stop offset="1" stop-color="#89525E"/>
</linearGradient>
<linearGradient id="paint8_linear" x1="440.693" y1="378.497" x2="440.693" y2="499.215" gradientUnits="userSpaceOnUse">
<stop stop-color="#FFC87A"/>
<stop offset="0.00773996" stop-color="#FDC679"/>
<stop offset="0.1384" stop-color="#D9A271"/>
<stop offset="0.2766" stop-color="#BC856A"/>
<stop offset="0.423" stop-color="#A56E65"/>
<stop offset="0.581" stop-color="#955E61"/>
<stop offset="0.7593" stop-color="#8C555F"/>
<stop offset="1" stop-color="#89525E"/>
</linearGradient>
<linearGradient id="paint9_linear" x1="375.019" y1="389.156" x2="376.9" y2="439.76" gradientUnits="userSpaceOnUse">
<stop stop-color="#FFC87A"/>
<stop offset="1" stop-color="#89525E"/>
</linearGradient>
<linearGradient id="paint10_linear" x1="635.996" y1="412.023" x2="575.95" y2="749.532" gradientUnits="userSpaceOnUse">
<stop stop-color="#FFC87A"/>
<stop offset="1" stop-color="#89525E"/>
</linearGradient>
<linearGradient id="paint11_linear" x1="196.943" y1="411.95" x2="248.805" y2="743.911" gradientUnits="userSpaceOnUse">
<stop stop-color="#FFC87A"/>
<stop offset="1" stop-color="#89525E"/>
</linearGradient>
<linearGradient id="paint12_linear" x1="446.388" y1="417.449" x2="429.587" y2="511.884" gradientUnits="userSpaceOnUse">
<stop stop-color="#FFC87A"/>
<stop offset="1" stop-color="#89525E"/>
</linearGradient>
<linearGradient id="paint13_linear" x1="445.705" y1="420.714" x2="429.06" y2="514.273" gradientUnits="userSpaceOnUse">
<stop stop-color="#FFC87A"/>
<stop offset="1" stop-color="#89525E"/>
</linearGradient>
<linearGradient id="paint14_linear" x1="445.705" y1="429.408" x2="429.059" y2="522.967" gradientUnits="userSpaceOnUse">
<stop stop-color="#FFC87A"/>
<stop offset="1" stop-color="#89525E"/>
</linearGradient>
<linearGradient id="paint15_linear" x1="372.724" y1="386.327" x2="372.724" y2="576.057" gradientUnits="userSpaceOnUse">
<stop stop-color="#FFC87A"/>
<stop offset="1" stop-color="#89525E"/>
</linearGradient>
<linearGradient id="paint16_linear" x1="139.515" y1="319.123" x2="143.036" y2="550.392" gradientUnits="userSpaceOnUse">
<stop stop-color="#FFC87A"/>
<stop offset="1" stop-color="#89525E"/>
</linearGradient>
<linearGradient id="paint17_linear" x1="301.694" y1="409.083" x2="301.694" y2="578.704" gradientUnits="userSpaceOnUse">
<stop stop-color="#FFC87A"/>
<stop offset="1" stop-color="#89525E"/>
</linearGradient>
<linearGradient id="paint18_linear" x1="358.077" y1="409.083" x2="358.077" y2="578.703" gradientUnits="userSpaceOnUse">
<stop stop-color="#FFC87A"/>
<stop offset="1" stop-color="#89525E"/>
</linearGradient>
<linearGradient id="paint19_linear" x1="414.46" y1="409.083" x2="414.46" y2="578.703" gradientUnits="userSpaceOnUse">
<stop stop-color="#FFC87A"/>
<stop offset="1" stop-color="#89525E"/>
</linearGradient>
<linearGradient id="paint20_linear" x1="470.842" y1="409.083" x2="470.842" y2="578.703" gradientUnits="userSpaceOnUse">
<stop stop-color="#FFC87A"/>
<stop offset="1" stop-color="#89525E"/>
</linearGradient>
<linearGradient id="paint21_linear" x1="527.225" y1="409.083" x2="527.225" y2="578.703" gradientUnits="userSpaceOnUse">
<stop stop-color="#FFC87A"/>
<stop offset="1" stop-color="#89525E"/>
</linearGradient>
<linearGradient id="paint22_linear" x1="583.608" y1="409.083" x2="583.608" y2="578.703" gradientUnits="userSpaceOnUse">
<stop stop-color="#FFC87A"/>
<stop offset="1" stop-color="#89525E"/>
</linearGradient>
<linearGradient id="paint23_linear" x1="527.483" y1="549.708" x2="527.483" y2="682.774" gradientUnits="userSpaceOnUse">
<stop stop-color="#FFC87A"/>
<stop offset="1" stop-color="#89525E"/>
</linearGradient>
<linearGradient id="paint24_linear" x1="361.424" y1="549.709" x2="361.424" y2="682.775" gradientUnits="userSpaceOnUse">
<stop stop-color="#FFC87A"/>
<stop offset="1" stop-color="#89525E"/>
</linearGradient>
</defs>
</svg>
